# Blender v2.93.2 OBJ File: 'simple_models_stair_1x1x1.blend'
# www.blender.org
mtllib simple_models_stair_1x1x1.mtl
o Cube_Cube.001
v 0.500000 -0.500000 0.500000
v 0.500000 0.500000 0.500000
v -0.500000 -0.500000 0.500000
v -0.500000 0.500000 0.500000
v 0.500000 -0.500000 -0.500000
v 0.500000 0.500000 0.000000
v -0.500000 -0.500000 -0.500000
v -0.500000 0.500000 0.000000
v -0.500000 0.000000 -0.500000
v 0.500000 0.000000 0.000000
v 0.500000 0.000000 -0.500000
v -0.500000 0.000000 0.000000
vt 0.000000 0.333333
vt 0.250000 0.333333
vt 0.250000 0.666667
vt 0.000000 0.666667
vt 1.000000 0.333333
vt 0.750000 0.333333
vt 0.750000 0.500000
vt 0.875000 0.500000
vt 0.875000 0.666667
vt 1.000000 0.666667
vt 0.500000 0.666667
vt 0.750000 0.666667
vt 0.750000 0.833333
vt 0.500000 0.833333
vt 0.500000 0.333333
vt 0.500000 0.500000
vt 0.375000 0.500000
vt 0.375000 0.666667
vt 0.250000 0.666667
vt 0.250000 0.333333
vt 0.500000 0.000000
vt 0.750000 0.000000
vt 0.750000 0.333333
vt 0.500000 0.333333
vt 0.500000 0.833333
vt 0.750000 0.833333
vt 0.750000 1.000000
vt 0.500000 1.000000
vt 0.500000 0.333333
vt 0.750000 0.333333
vt 0.750000 0.500000
vt 0.500000 0.500000
vt 0.500000 0.500000
vt 0.750000 0.500000
vt 0.750000 0.666667
vt 0.500000 0.666667
vn 0.0000 0.0000 1.0000
vn -1.0000 0.0000 0.0000
vn 0.0000 0.0000 -1.0000
vn 1.0000 0.0000 0.0000
vn 0.0000 -1.0000 0.0000
vn 0.0000 1.0000 0.0000
usemtl Material
s off
f 1/1/1 2/2/1 4/3/1 3/4/1
f 3/5/2 4/6/2 8/7/2 12/8/2 9/9/2 7/10/2
f 12/11/3 8/12/3 6/13/3 10/14/3
f 5/15/4 11/16/4 10/17/4 6/18/4 2/19/4 1/20/4
f 3/21/5 7/22/5 5/23/5 1/24/5
f 8/25/6 4/26/6 2/27/6 6/28/6
f 7/29/3 9/30/3 11/31/3 5/32/3
f 9/33/6 12/34/6 10/35/6 11/36/6
